<svg width="16" height="15" viewBox="0 0 16 15" fill="none" xmlns="http://www.w3.org/2000/svg">
<path fill-rule="evenodd" clip-rule="evenodd" d="M11.011 0.5C11.4566 0.500016 11.8934 0.627757 12.2725 0.868916C12.6516 1.11007 12.958 1.45512 13.1573 1.86541L14.2661 4.14741C14.4613 4.06506 14.6533 3.97612 14.8421 3.88059C15.032 3.78296 15.2518 3.76698 15.4531 3.83617C15.6544 3.90536 15.8208 4.05405 15.9157 4.24953C16.0105 4.44501 16.026 4.67127 15.9588 4.87853C15.8916 5.08579 15.7472 5.25708 15.5573 5.35471C15.365 5.4428 15.1716 5.52846 14.9773 5.61165L15.7461 7.19529C15.9129 7.53867 15.9998 7.91735 15.9997 8.30129V10.3824C15.9997 10.7299 15.9284 11.0736 15.7905 11.3909C15.6527 11.7082 15.4514 11.992 15.1997 12.2238V13.2647C15.1997 13.5923 15.0733 13.9065 14.8482 14.1382C14.6232 14.3699 14.318 14.5 13.9997 14.5C13.6815 14.5 13.3762 14.3699 13.1512 14.1382C12.9262 13.9065 12.7997 13.5923 12.7997 13.2647V12.8529H3.19993V13.2647C3.19993 13.5923 3.07351 13.9065 2.84847 14.1382C2.62343 14.3699 2.31821 14.5 1.99996 14.5C1.68171 14.5 1.37649 14.3699 1.15145 14.1382C0.926409 13.9065 0.799983 13.5923 0.799983 13.2647V12.2238C0.308794 11.7708 0 11.1136 0 10.3824V8.30047C0.0001495 7.91708 0.086971 7.53899 0.253595 7.19612L1.01598 5.62482C0.822916 5.54137 0.632253 5.45161 0.443991 5.35553C0.25506 5.25663 0.111445 5.08526 0.0441052 4.87838C-0.023235 4.67149 -0.00890781 4.44565 0.0839983 4.24953C0.130924 4.15271 0.195926 4.06635 0.275287 3.9954C0.354649 3.92445 0.446815 3.8703 0.546518 3.83603C0.64622 3.80177 0.751505 3.78807 0.856354 3.79572C0.961202 3.80336 1.06356 3.8322 1.15758 3.88059C1.34691 3.97667 1.5389 4.06561 1.73356 4.14741L2.84234 1.86624C3.04158 1.45579 3.3479 1.11057 3.727 0.869266C4.1061 0.627957 4.54298 0.500092 4.9887 0.5H11.011ZM4.39991 7.91176C4.08165 7.91176 3.77644 8.04191 3.5514 8.27357C3.32636 8.50524 3.19993 8.81944 3.19993 9.14706C3.19993 9.47468 3.32636 9.78888 3.5514 10.0205C3.77644 10.2522 4.08165 10.3824 4.39991 10.3824C4.71816 10.3824 5.02338 10.2522 5.24842 10.0205C5.47346 9.78888 5.59988 9.47468 5.59988 9.14706C5.59988 8.81944 5.47346 8.50524 5.24842 8.27357C5.02338 8.04191 4.71816 7.91176 4.39991 7.91176ZM11.5998 7.91176C11.2815 7.91176 10.9763 8.04191 10.7512 8.27357C10.5262 8.50524 10.3998 8.81944 10.3998 9.14706C10.3998 9.47468 10.5262 9.78888 10.7512 10.0205C10.9763 10.2522 11.2815 10.3824 11.5998 10.3824C11.918 10.3824 12.2232 10.2522 12.4483 10.0205C12.6733 9.78888 12.7997 9.47468 12.7997 9.14706C12.7997 8.81944 12.6733 8.50524 12.4483 8.27357C12.2232 8.04191 11.918 7.91176 11.5998 7.91176ZM11.011 2.14706H4.9887C4.85702 2.14704 4.72738 2.18048 4.61128 2.2444C4.49517 2.30833 4.39619 2.40078 4.32311 2.51353L4.27351 2.60247L3.25753 4.69259C4.49591 5.07471 6.16467 5.44118 7.99983 5.44118C9.7134 5.44118 11.2806 5.12165 12.4877 4.76835L12.7413 4.69259L11.7262 2.60247C11.6673 2.48126 11.5803 2.37688 11.4728 2.29859C11.3654 2.22029 11.2408 2.17051 11.1102 2.15365L11.0118 2.14706H11.011Z" fill="#333333"/>
</svg>
