<svg width="16" height="17" viewBox="0 0 16 17" fill="none" xmlns="http://www.w3.org/2000/svg">
<path d="M5 6C5 2.924 7.424 0.5 10.5 0.5C13.576 0.5 16 2.924 16 6C16 9.076 13.576 11.5 10.5 11.5C9.99429 11.5057 9.49001 11.4451 9 11.32V11.5C9 11.7652 8.89464 12.0196 8.70711 12.2071C8.51957 12.3946 8.26522 12.5 8 12.5H7V13.5C7 13.7652 6.89464 14.0196 6.70711 14.2071C6.51957 14.3946 6.26522 14.5 6 14.5H5V15C5 15.3978 4.84196 15.7794 4.56066 16.0607C4.27936 16.342 3.89782 16.5 3.5 16.5H1.5C1.10218 16.5 0.720644 16.342 0.43934 16.0607C0.158035 15.7794 0 15.3978 0 15V13.414C0 13.016 0.158 12.634 0.44 12.354L4.98 7.813C5.114 7.679 5.18 7.445 5.122 7.175C5.04002 6.78873 4.99913 6.39487 5 6ZM13 4.5C13 4.23478 12.8946 3.98043 12.7071 3.79289C12.5196 3.60536 12.2652 3.5 12 3.5C11.7348 3.5 11.4804 3.60536 11.2929 3.79289C11.1054 3.98043 11 4.23478 11 4.5C11 4.76522 11.1054 5.01957 11.2929 5.20711C11.4804 5.39464 11.7348 5.5 12 5.5C12.2652 5.5 12.5196 5.39464 12.7071 5.20711C12.8946 5.01957 13 4.76522 13 4.5Z" fill="#333333"/>
</svg>
