<svg width="20" height="15" viewBox="0 0 20 15" fill="none" xmlns="http://www.w3.org/2000/svg">
<path d="M10 7C11.315 7 12.381 5.88071 12.381 4.5C12.381 3.11929 11.315 2 10 2C8.68504 2 7.61905 3.11929 7.61905 4.5C7.61905 5.88071 8.68504 7 10 7Z" fill="#333333"/>
<path d="M15.7143 5C17.0292 5 18.0952 3.88071 18.0952 2.5C18.0952 1.11929 17.0292 0 15.7143 0C14.3993 0 13.3333 1.11929 13.3333 2.5C13.3333 3.88071 14.3993 5 15.7143 5Z" fill="#333333"/>
<path d="M4.28571 5C5.60068 5 6.66667 3.88071 6.66667 2.5C6.66667 1.11929 5.60068 0 4.28571 0C2.97075 0 1.90476 1.11929 1.90476 2.5C1.90476 3.88071 2.97075 5 4.28571 5Z" fill="#333333"/>
<path fill-rule="evenodd" clip-rule="evenodd" d="M14.2857 11.5V14.5C14.2857 14.6325 14.2357 14.76 14.1462 14.8535C14.0571 14.9475 13.9357 15 13.8095 15H6.19048C6.06429 15 5.94286 14.9475 5.85381 14.8535C5.76429 14.76 5.71429 14.6325 5.71429 14.5V11.5C5.71429 9.567 7.20667 8 9.04762 8H10.9524C12.7933 8 14.2857 9.567 14.2857 11.5Z" fill="#333333"/>
<path fill-rule="evenodd" clip-rule="evenodd" d="M15.2381 13H19.5238C19.65 13 19.7714 12.9475 19.8605 12.8535C19.95 12.76 20 12.6325 20 12.5V9.5C20 7.567 18.5076 6 16.6667 6H14.7619C13.7562 6 12.8543 6.468 12.2429 7.2075C13.979 7.7825 15.2381 9.487 15.2381 11.5V13Z" fill="#333333"/>
<path fill-rule="evenodd" clip-rule="evenodd" d="M7.75715 7.2075C7.14572 6.468 6.24381 6 5.2381 6H3.33333C1.49238 6 0 7.567 0 9.5V12.5C0 12.6325 0.0499997 12.76 0.139523 12.8535C0.228571 12.9475 0.35 13 0.47619 13H4.7619V11.5C4.7619 9.487 6.02096 7.7825 7.75715 7.2075Z" fill="#333333"/>
</svg>
