<svg width="16" height="14" viewBox="0 0 16 14" fill="none" xmlns="http://www.w3.org/2000/svg">
<path d="M13.6531 2.68333C12.1797 1.31004 10.1948 0.527409 8.11752 0.500706C6.04024 0.474003 4.0332 1.20532 2.52022 2.54022C1.00723 3.87512 0.106742 5.70911 0.00889492 7.65491C-0.0889521 9.60072 0.623506 11.506 1.99582 12.9685L2.00183 12.9747C2.01284 12.9857 2.02318 12.997 2.03519 13.0076C2.05988 13.0339 2.08791 13.0636 2.12094 13.0946C2.25048 13.2237 2.40705 13.3263 2.58085 13.3961C2.75465 13.4658 2.94193 13.5012 3.13097 13.5C3.32002 13.4987 3.50676 13.4609 3.6795 13.3889C3.85224 13.3169 4.00727 13.2122 4.13489 13.0814C4.62592 12.581 5.22232 12.1816 5.88639 11.9084C6.55046 11.6352 7.26776 11.4941 7.99295 11.4941C8.71814 11.4941 9.43544 11.6352 10.0995 11.9084C10.7636 12.1816 11.36 12.581 11.851 13.0814C11.9796 13.2129 12.1358 13.3179 12.3099 13.3898C12.484 13.4617 12.6722 13.4989 12.8624 13.4991C13.0526 13.4993 13.2408 13.4624 13.4151 13.3908C13.5893 13.3193 13.7458 13.2145 13.8746 13.0833L13.9817 12.9738L13.9877 12.9675C15.3399 11.5359 16.0583 9.67426 15.9963 7.76277C15.9343 5.85127 15.0965 4.03405 13.6541 2.68207L13.6531 2.68333ZM7.4571 2.98836C7.4571 2.8556 7.51334 2.72828 7.61346 2.6344C7.71358 2.54053 7.84936 2.48779 7.99095 2.48779C8.13253 2.48779 8.26832 2.54053 8.36844 2.6344C8.46855 2.72828 8.5248 2.8556 8.5248 2.98836V3.9895C8.5248 4.12226 8.46855 4.24958 8.36844 4.34346C8.26832 4.43733 8.13253 4.49007 7.99095 4.49007C7.84936 4.49007 7.71358 4.43733 7.61346 4.34346C7.51334 4.24958 7.4571 4.12226 7.4571 3.9895V2.98836ZM3.72015 8.49464H2.65246C2.51087 8.49464 2.37508 8.4419 2.27497 8.34802C2.17485 8.25415 2.11861 8.12683 2.11861 7.99407C2.11861 7.86131 2.17485 7.73398 2.27497 7.64011C2.37508 7.54623 2.51087 7.4935 2.65246 7.4935H3.72015C3.86174 7.4935 3.99753 7.54623 4.09764 7.64011C4.19776 7.73398 4.254 7.86131 4.254 7.99407C4.254 8.12683 4.19776 8.25415 4.09764 8.34802C3.99753 8.4419 3.86174 8.49464 3.72015 8.49464ZM5.34839 5.51624C5.24829 5.61005 5.11255 5.66274 4.97103 5.66274C4.8295 5.66274 4.69377 5.61005 4.59366 5.51624L3.8386 4.80856C3.73847 4.71467 3.68222 4.58734 3.68222 4.45456C3.68222 4.32179 3.73847 4.19445 3.8386 4.10057C3.93873 4.00668 4.07453 3.95394 4.21613 3.95394C4.35774 3.95394 4.49354 4.00668 4.59366 4.10057L5.34839 4.80856C5.44843 4.90243 5.50463 5.0297 5.50463 5.1624C5.50463 5.2951 5.44843 5.42238 5.34839 5.51624ZM10.3299 6.23894L8.74501 8.60101C8.68017 8.68527 8.60131 8.75921 8.51145 8.82001C8.29451 8.96191 8.02664 9.01787 7.76598 8.97574C7.50531 8.93361 7.27288 8.79678 7.11914 8.59495C6.96539 8.39313 6.90274 8.1426 6.94477 7.89772C6.98681 7.65285 7.13014 7.43341 7.34366 7.28701L9.86276 5.80094C9.92002 5.76351 9.98814 5.74345 10.0579 5.74345C10.1277 5.74345 10.1959 5.76351 10.2531 5.80094C10.3251 5.84963 10.3735 5.92303 10.3879 6.0051C10.4023 6.08717 10.3814 6.17124 10.3299 6.23894ZM11.3882 5.51624C11.2873 5.60616 11.1529 5.65554 11.0137 5.65387C10.8745 5.6522 10.7415 5.5996 10.643 5.5073C10.5446 5.41499 10.4885 5.29028 10.4867 5.15975C10.4849 5.02922 10.5376 4.9032 10.6335 4.80856L11.3882 4.10057C11.4884 4.00668 11.6242 3.95394 11.7658 3.95394C11.9074 3.95394 12.0432 4.00668 12.1433 4.10057C12.2434 4.19445 12.2997 4.32179 12.2997 4.45456C12.2997 4.58734 12.2434 4.71467 12.1433 4.80856L11.3882 5.51624ZM13.3294 8.49464H12.2617C12.1202 8.49464 11.9844 8.4419 11.8843 8.34802C11.7841 8.25415 11.7279 8.12683 11.7279 7.99407C11.7279 7.86131 11.7841 7.73398 11.8843 7.64011C11.9844 7.54623 12.1202 7.4935 12.2617 7.4935H13.3294C13.471 7.4935 13.6068 7.54623 13.7069 7.64011C13.807 7.73398 13.8633 7.86131 13.8633 7.99407C13.8633 8.12683 13.807 8.25415 13.7069 8.34802C13.6068 8.4419 13.471 8.49464 13.3294 8.49464Z" fill="#333333"/>
</svg>
